<svg width="159" height="190" viewBox="0 0 159 190" fill="none" xmlns="http://www.w3.org/2000/svg">
<path d="M79.9401 0.558594C80.8255 0.558599 81.7196 0.775621 82.1623 1.44402L82.8394 2.32945C94.1772 15.4468 108.395 25.8887 123.951 32.5555C130.618 35.4372 136.39 39.4394 141.503 44.5521C146.607 49.8907 150.609 55.8894 153.5 62.5558C156.382 69.6737 157.944 76.9986 157.944 84.5591V186.55C157.944 188.104 156.607 189.441 155.054 189.441H4.83505C3.28136 189.441 1.9447 188.104 1.9444 186.55V84.5526C1.94448 73.4415 5.05211 62.7727 11.2761 53.4411C17.2735 44.3354 25.7209 37.4426 35.4951 32.9982C51.7193 25.8892 65.7214 15.4369 76.8324 2.32945L77.7178 1.44402C78.3862 1.00131 79.0546 0.558594 79.9401 0.558594Z" fill="url(#paint0_linear_53_1807)"/>
<path d="M28.4263 138.253H30.8183V141.893H24.2663C19.0923 141.893 15.3743 139.527 15.3743 134.587C15.3743 130.375 18.6763 127.255 24.2663 127.255H24.7863V125.955H28.4263V138.253ZM23.2003 138.253H24.7863V130.895H23.3823C21.2503 130.895 19.0143 132.247 19.0143 134.587C19.0143 136.979 21.0423 138.253 23.2003 138.253ZM26.2423 124.031C25.1503 124.031 24.2143 123.381 24.2143 122.159C24.2143 121.067 25.0983 120.313 26.2423 120.313C27.4123 120.313 28.2703 121.067 28.2703 122.159C28.2703 123.381 27.3343 124.031 26.2423 124.031ZM20.6003 124.031C19.5083 124.031 18.5723 123.381 18.5723 122.159C18.5723 121.067 19.4563 120.313 20.6003 120.313C21.7443 120.313 22.6283 121.067 22.6283 122.159C22.6283 123.381 21.6923 124.031 20.6003 124.031Z" fill="white"/>
<path d="M28.2413 141.893V138.253H31.4653V127.255H35.1053V138.253H37.8873V141.893H28.2413ZM33.1813 125.045C32.0373 125.045 31.0493 124.369 31.0493 123.095C31.0493 121.951 31.9853 121.171 33.1813 121.171C34.4033 121.171 35.3133 121.951 35.3133 123.095C35.3133 124.369 34.3253 125.045 33.1813 125.045Z" fill="white"/>
<path d="M54.3339 128.555V134.847C54.3339 137.317 55.6339 138.513 57.6099 138.513C59.6639 138.513 60.7299 137.239 60.7299 135.237V125.435H64.3439V134.769C64.3439 135.601 64.2659 136.355 64.1619 137.031C64.9419 137.863 66.1119 138.253 67.8019 138.253V141.893C64.9419 141.893 63.7459 140.801 63.1479 139.735C62.0559 141.347 60.2099 142.153 57.6099 142.153C55.6339 142.153 53.6319 141.581 52.4359 139.657C51.1099 141.035 49.2379 141.893 47.2619 141.893H35.3019V138.253H40.9699V128.555H44.6099V138.253H47.2619C48.8219 138.253 50.6939 137.551 50.6939 135.003V128.555H54.3339Z" fill="white"/>
<path d="M65.2141 141.893V138.253H67.7621V120.807H71.4021V141.893H65.2141Z" fill="white"/>
<path d="M74.6645 141.893V120.807H78.3045V141.893H74.6645Z" fill="white"/>
<path d="M93.6583 145.143C90.5643 145.143 88.6403 144.519 87.0543 143.011C85.7803 141.815 85.3123 139.735 85.3123 137.629V129.127H88.9523V137.187C88.9523 138.721 89.2383 139.839 90.0443 140.515C90.9283 141.269 92.3843 141.503 93.9183 141.503H95.9983V120.807H99.6383V145.143H93.6583Z" fill="white"/>
<path d="M102.36 122.783V121.587C102.36 119.247 103.608 118.363 105.636 118.363H106.936V119.533H105.844C104.804 119.533 104.44 120.001 104.44 120.833H107.768V122.783H102.36ZM103.27 141.893V123.953H106.91V138.253H110.238V141.893H103.27Z" fill="white"/>
<path d="M107.627 141.893V138.253H113.295V128.555H116.935V138.253H119.587C121.147 138.253 123.019 137.551 123.019 135.003V128.555H126.659V135.003C126.711 137.369 127.985 138.513 129.935 138.513C131.989 138.513 133.055 137.239 133.055 135.237V125.435H136.669V134.769C136.669 139.761 134.459 142.153 129.935 142.153C127.959 142.153 125.957 141.581 124.761 139.657C123.435 141.035 121.563 141.893 119.587 141.893H107.627Z" fill="white"/>
<path d="M139.294 141.893V120.807H142.934V141.893H139.294Z" fill="white"/>
<path d="M30.1844 165.113L33.9124 154.105H36.9524L40.6804 165.113H38.3604L37.5444 162.681H33.2404L32.4564 165.113H30.1844ZM33.8164 160.841H36.9524L35.4324 156.169H35.3364L33.8164 160.841Z" fill="#665200"/>
<path d="M45.9371 165.241C45.5318 165.241 45.0838 165.23 44.5931 165.209C44.1131 165.187 43.6438 165.155 43.1851 165.113C42.7265 165.081 42.3051 165.043 41.9211 165.001V163.193C42.3158 163.225 42.7158 163.257 43.1211 163.289C43.5371 163.321 43.9318 163.347 44.3051 163.369C44.6785 163.379 44.9985 163.385 45.2651 163.385C45.8091 163.385 46.2305 163.363 46.5291 163.321C46.8278 163.267 47.0518 163.193 47.2011 163.097C47.3185 163.011 47.3985 162.921 47.4411 162.825C47.4838 162.718 47.5105 162.595 47.5211 162.457C47.5318 162.307 47.5371 162.142 47.5371 161.961C47.5371 161.715 47.5211 161.513 47.4891 161.353C47.4678 161.193 47.4251 161.07 47.3611 160.985C47.2971 160.889 47.1905 160.819 47.0411 160.777C46.9025 160.734 46.7211 160.702 46.4971 160.681L44.0331 160.377C43.5425 160.313 43.1371 160.201 42.8171 160.041C42.5078 159.881 42.2625 159.667 42.0811 159.401C41.8998 159.134 41.7718 158.819 41.6971 158.457C41.6331 158.094 41.6011 157.683 41.6011 157.225C41.6011 156.499 41.7025 155.923 41.9051 155.497C42.1078 155.07 42.3905 154.745 42.7531 154.521C43.1265 154.297 43.5638 154.153 44.0651 154.089C44.5665 154.014 45.1105 153.977 45.6971 153.977C46.1238 153.977 46.5611 153.993 47.0091 154.025C47.4571 154.046 47.8785 154.078 48.2731 154.121C48.6678 154.163 48.9985 154.217 49.2651 154.281V156.041C48.9985 155.998 48.6891 155.961 48.3371 155.929C47.9851 155.897 47.6171 155.875 47.2331 155.865C46.8491 155.843 46.4865 155.833 46.1451 155.833C45.6438 155.833 45.2438 155.854 44.9451 155.897C44.6571 155.929 44.4331 155.987 44.2731 156.073C44.0918 156.179 43.9798 156.318 43.9371 156.489C43.9051 156.659 43.8891 156.873 43.8891 157.129C43.8891 157.449 43.9105 157.694 43.9531 157.865C43.9958 158.025 44.0971 158.137 44.2571 158.201C44.4171 158.265 44.6678 158.318 45.0091 158.361L47.4731 158.649C47.7718 158.681 48.0491 158.734 48.3051 158.809C48.5611 158.883 48.7905 159.001 48.9931 159.161C49.1958 159.321 49.3611 159.545 49.4891 159.833C49.5638 159.982 49.6225 160.158 49.6651 160.361C49.7078 160.553 49.7398 160.771 49.7611 161.017C49.7931 161.262 49.8091 161.534 49.8091 161.833C49.8091 162.451 49.7451 162.969 49.6171 163.385C49.4998 163.801 49.3291 164.131 49.1051 164.377C48.8811 164.622 48.6038 164.809 48.2731 164.937C47.9531 165.065 47.5958 165.145 47.2011 165.177C46.8065 165.219 46.3851 165.241 45.9371 165.241Z" fill="#665200"/>
<path d="M51.827 165.113V154.105H54.099V158.585H55.267L58.611 154.105H61.091L57.091 159.369L61.139 165.113H58.531L55.267 160.441H54.099V165.113H51.827Z" fill="#665200"/>
<path d="M70.1759 165.241C69.7706 165.241 69.3226 165.23 68.8319 165.209C68.3519 165.187 67.8826 165.155 67.4239 165.113C66.9652 165.081 66.5439 165.043 66.1599 165.001V163.193C66.5546 163.225 66.9546 163.257 67.3599 163.289C67.7759 163.321 68.1706 163.347 68.5439 163.369C68.9172 163.379 69.2372 163.385 69.5039 163.385C70.0479 163.385 70.4692 163.363 70.7679 163.321C71.0665 163.267 71.2906 163.193 71.4399 163.097C71.5572 163.011 71.6372 162.921 71.6799 162.825C71.7226 162.718 71.7492 162.595 71.7599 162.457C71.7706 162.307 71.7759 162.142 71.7759 161.961C71.7759 161.715 71.7599 161.513 71.7279 161.353C71.7066 161.193 71.6639 161.07 71.5999 160.985C71.5359 160.889 71.4292 160.819 71.2799 160.777C71.1412 160.734 70.9599 160.702 70.7359 160.681L68.2719 160.377C67.7812 160.313 67.3759 160.201 67.0559 160.041C66.7466 159.881 66.5012 159.667 66.3199 159.401C66.1386 159.134 66.0106 158.819 65.9359 158.457C65.8719 158.094 65.8399 157.683 65.8399 157.225C65.8399 156.499 65.9412 155.923 66.1439 155.497C66.3466 155.07 66.6292 154.745 66.9919 154.521C67.3652 154.297 67.8026 154.153 68.3039 154.089C68.8052 154.014 69.3492 153.977 69.9359 153.977C70.3625 153.977 70.7999 153.993 71.2479 154.025C71.6959 154.046 72.1172 154.078 72.5119 154.121C72.9066 154.163 73.2372 154.217 73.5039 154.281V156.041C73.2372 155.998 72.9279 155.961 72.5759 155.929C72.2239 155.897 71.8559 155.875 71.4719 155.865C71.0879 155.843 70.7252 155.833 70.3839 155.833C69.8826 155.833 69.4826 155.854 69.1839 155.897C68.8959 155.929 68.6719 155.987 68.5119 156.073C68.3306 156.179 68.2186 156.318 68.1759 156.489C68.1439 156.659 68.1279 156.873 68.1279 157.129C68.1279 157.449 68.1492 157.694 68.1919 157.865C68.2346 158.025 68.3359 158.137 68.4959 158.201C68.6559 158.265 68.9066 158.318 69.2479 158.361L71.7119 158.649C72.0106 158.681 72.2879 158.734 72.5439 158.809C72.7999 158.883 73.0292 159.001 73.2319 159.161C73.4346 159.321 73.5999 159.545 73.7279 159.833C73.8026 159.982 73.8612 160.158 73.9039 160.361C73.9466 160.553 73.9786 160.771 73.9999 161.017C74.0319 161.262 74.0479 161.534 74.0479 161.833C74.0479 162.451 73.9839 162.969 73.8559 163.385C73.7386 163.801 73.5679 164.131 73.3439 164.377C73.1199 164.622 72.8426 164.809 72.5119 164.937C72.1919 165.065 71.8346 165.145 71.4399 165.177C71.0452 165.219 70.6239 165.241 70.1759 165.241Z" fill="#665200"/>
<path d="M80.3378 165.241C79.5591 165.241 78.9084 165.193 78.3858 165.097C77.8631 165.001 77.4418 164.846 77.1218 164.633C76.8018 164.419 76.5564 164.121 76.3858 163.737C76.2258 163.353 76.1138 162.873 76.0498 162.297C75.9964 161.71 75.9698 161.011 75.9698 160.201V154.105H78.2418V160.777C78.2418 161.342 78.2578 161.801 78.2898 162.153C78.3324 162.494 78.4124 162.755 78.5298 162.937C78.6578 163.118 78.8658 163.241 79.1538 163.305C79.4418 163.358 79.8364 163.385 80.3378 163.385C80.8391 163.385 81.2284 163.358 81.5058 163.305C81.7938 163.241 82.0018 163.118 82.1298 162.937C82.2578 162.755 82.3378 162.494 82.3698 162.153C82.4018 161.801 82.4178 161.342 82.4178 160.777V154.105H84.6898V160.201C84.6898 161.011 84.6578 161.71 84.5938 162.297C84.5404 162.873 84.4338 163.353 84.2738 163.737C84.1138 164.121 83.8738 164.419 83.5538 164.633C83.2338 164.846 82.8124 165.001 82.2898 165.097C81.7671 165.193 81.1164 165.241 80.3378 165.241Z" fill="#665200"/>
<path d="M87.0776 165.113V154.105H89.4296L93.7656 160.889H93.8456V154.105H96.0216V165.113H93.8616L89.3336 157.961H89.2536V165.113H87.0776Z" fill="#665200"/>
<path d="M98.4801 165.113V154.105H100.832L105.168 160.889H105.248V154.105H107.424V165.113H105.264L100.736 157.961H100.656V165.113H98.4801Z" fill="#665200"/>
<path d="M108.811 165.113L112.539 154.105H115.579L119.307 165.113H116.987L116.171 162.681H111.867L111.083 165.113H108.811ZM112.443 160.841H115.579L114.059 156.169H113.963L112.443 160.841Z" fill="#665200"/>
<path d="M120.691 165.113V154.105H122.963V158.601H127.347V154.105H129.619V165.113H127.347V160.553H122.963V165.113H120.691Z" fill="#665200"/>
<path d="M99.2608 48.5684C101.229 48.5629 102.911 49.3094 104.114 50.1621L134.958 72.0508C138.48 74.6967 137.797 76.238 135.671 76.8047C125.057 78.9253 99.3808 85.1586 85.1573 97.7656C82.9903 99.9677 80.8704 99.5245 80.8702 96.1309V56.834C83.2829 55.0989 89.6392 50.8746 97.1983 48.8477C97.9108 48.655 98.6068 48.5684 99.2608 48.5684Z" fill="white"/>
<path d="M60.1163 48.5586C60.7705 48.5586 61.4662 48.6471 62.1788 48.8398C69.7378 50.8668 76.0942 55.0891 78.5069 56.8242V96.1211C78.5069 99.5152 76.3871 99.9582 74.2198 97.7559C59.9964 85.1549 34.3206 78.9233 23.7062 76.8027C21.58 76.236 20.8966 74.693 24.4191 72.0469L55.2628 50.1582C56.4662 49.3053 58.1496 48.5567 60.1183 48.5625L60.1163 48.5586Z" fill="white"/>
<defs>
<linearGradient id="paint0_linear_53_1807" x1="79.9444" y1="0.558594" x2="79.9444" y2="189.441" gradientUnits="userSpaceOnUse">
<stop stop-color="#FFF1B7"/>
<stop offset="1" stop-color="#BFA434"/>
</linearGradient>
</defs>
</svg>
