<svg width="204" height="187" viewBox="0 0 204 187" fill="none" xmlns="http://www.w3.org/2000/svg">
<path d="M22.4642 142.632H26.2146V148.339H15.9417C7.82944 148.339 2 144.629 2 136.884C2 130.28 7.17719 125.388 15.9417 125.388H16.757V123.35H22.4642V142.632ZM14.2704 142.632H16.757V131.095H14.5557C11.213 131.095 7.70714 133.215 7.70714 136.884C7.70714 140.634 10.8868 142.632 14.2704 142.632ZM19.0399 120.333C17.3278 120.333 15.8602 119.314 15.8602 117.398C15.8602 115.686 17.2462 114.504 19.0399 114.504C20.8743 114.504 22.2196 115.686 22.2196 117.398C22.2196 119.314 20.752 120.333 19.0399 120.333ZM10.1938 120.333C8.48168 120.333 7.01413 119.314 7.01413 117.398C7.01413 115.686 8.40015 114.504 10.1938 114.504C11.9875 114.504 13.3735 115.686 13.3735 117.398C13.3735 119.314 11.906 120.333 10.1938 120.333Z" fill="#B39931"/>
<path d="M22.174 148.339V142.632H27.2289V125.388H32.9361V142.632H37.298V148.339H22.174ZM29.9195 121.923C28.1258 121.923 26.5767 120.863 26.5767 118.866C26.5767 117.072 28.0443 115.849 29.9195 115.849C31.8354 115.849 33.2622 117.072 33.2622 118.866C33.2622 120.863 31.7131 121.923 29.9195 121.923Z" fill="#B39931"/>
<path d="M63.0846 127.427V137.292C63.0846 141.164 65.1229 143.04 68.221 143.04C71.4415 143.04 73.1128 141.042 73.1128 137.903V122.535H78.7792V137.169C78.7792 138.474 78.6569 139.656 78.4939 140.716C79.7168 142.02 81.5513 142.632 84.201 142.632V148.339C79.7168 148.339 77.8416 146.627 76.904 144.956C75.1919 147.483 72.2975 148.747 68.221 148.747C65.1229 148.747 61.9839 147.85 60.1087 144.833C58.0297 146.994 55.0946 148.339 51.9964 148.339H33.2444V142.632H42.1312V127.427H47.8384V142.632H51.9964C54.4423 142.632 57.3774 141.531 57.3774 137.536V127.427H63.0846Z" fill="#B39931"/>
<path d="M80.1436 148.339V142.632H84.1386V115.278H89.8457V148.339H80.1436Z" fill="#B39931"/>
<path d="M94.9608 148.339V115.278H100.668V148.339H94.9608Z" fill="#B39931"/>
<path d="M124.741 153.435C119.89 153.435 116.873 152.456 114.387 150.092C112.389 148.217 111.655 144.956 111.655 141.654V128.323H117.363V140.961C117.363 143.366 117.811 145.119 119.075 146.179C120.461 147.361 122.744 147.728 125.149 147.728H128.41V115.278H134.117V153.435H124.741Z" fill="#B39931"/>
<path d="M138.384 118.377V116.501C138.384 112.833 140.341 111.447 143.52 111.447H145.559V113.281H143.846C142.216 113.281 141.645 114.015 141.645 115.319H146.863V118.377H138.384ZM139.811 148.339V120.211H145.518V142.632H150.736V148.339H139.811Z" fill="#B39931"/>
<path d="M146.642 148.339V142.632H155.529V127.427H161.236V142.632H165.394C167.84 142.632 170.775 141.531 170.775 137.536V127.427H176.482V137.536C176.564 141.246 178.561 143.04 181.619 143.04C184.839 143.04 186.51 141.042 186.51 137.903V122.535H192.177V137.169C192.177 144.996 188.712 148.747 181.619 148.747C178.52 148.747 175.382 147.85 173.506 144.833C171.427 146.994 168.492 148.339 165.394 148.339H146.642Z" fill="#B39931"/>
<path d="M196.293 148.339V115.278H202V148.339H196.293Z" fill="#B39931"/>
<path d="M25.2206 184.745L31.0658 167.485H35.8322L41.6773 184.745H38.0398L36.7604 180.931H30.0121L28.7829 184.745H25.2206ZM30.9152 178.046H35.8322L33.449 170.721H33.2984L30.9152 178.046Z" fill="#525252"/>
<path d="M49.9193 184.945C49.2838 184.945 48.5814 184.929 47.8121 184.895C47.0595 184.862 46.3236 184.811 45.6045 184.745C44.8853 184.694 44.2247 184.636 43.6226 184.569V181.734C44.2414 181.784 44.8686 181.835 45.5041 181.885C46.1564 181.935 46.7752 181.977 47.3605 182.01C47.9459 182.027 48.4476 182.035 48.8657 182.035C49.7186 182.035 50.3792 182.002 50.8475 181.935C51.3158 181.851 51.667 181.734 51.9011 181.584C52.0851 181.45 52.2105 181.308 52.2774 181.157C52.3443 180.99 52.3861 180.798 52.4029 180.58C52.4196 180.346 52.428 180.087 52.428 179.803C52.428 179.418 52.4029 179.1 52.3527 178.849C52.3192 178.598 52.2523 178.406 52.152 178.272C52.0517 178.122 51.8844 178.013 51.6503 177.946C51.4329 177.879 51.1485 177.829 50.7973 177.796L46.934 177.319C46.1647 177.219 45.5292 177.043 45.0275 176.792C44.5425 176.541 44.1578 176.207 43.8735 175.789C43.5892 175.371 43.3885 174.877 43.2714 174.309C43.1711 173.74 43.1209 173.096 43.1209 172.377C43.1209 171.24 43.2798 170.337 43.5976 169.668C43.9153 168.999 44.3585 168.489 44.9271 168.137C45.5125 167.786 46.1982 167.56 46.9842 167.46C47.7703 167.343 48.6232 167.284 49.543 167.284C50.212 167.284 50.8977 167.31 51.6001 167.36C52.3025 167.393 52.9631 167.443 53.5819 167.51C54.2007 167.577 54.7192 167.661 55.1373 167.761V170.521C54.7192 170.454 54.2342 170.395 53.6823 170.345C53.1304 170.295 52.5534 170.261 51.9513 170.245C51.3492 170.211 50.7806 170.194 50.2454 170.194C49.4594 170.194 48.8322 170.228 48.364 170.295C47.9124 170.345 47.5612 170.437 47.3103 170.571C47.026 170.738 46.8504 170.955 46.7835 171.223C46.7334 171.491 46.7083 171.825 46.7083 172.226C46.7083 172.728 46.7417 173.113 46.8086 173.38C46.8755 173.631 47.0344 173.807 47.2853 173.907C47.5361 174.008 47.9291 174.091 48.4643 174.158L52.3276 174.61C52.7959 174.66 53.2307 174.743 53.6321 174.861C54.0335 174.978 54.393 175.162 54.7108 175.412C55.0286 175.663 55.2878 176.014 55.4885 176.466C55.6056 176.7 55.6975 176.976 55.7644 177.294C55.8313 177.595 55.8815 177.938 55.915 178.322C55.9651 178.707 55.9902 179.134 55.9902 179.602C55.9902 180.572 55.8899 181.383 55.6892 182.035C55.5052 182.687 55.2376 183.206 54.8864 183.591C54.5352 183.975 54.1004 184.268 53.5819 184.469C53.0802 184.669 52.5199 184.795 51.9011 184.845C51.2823 184.912 50.6217 184.945 49.9193 184.945Z" fill="#525252"/>
<path d="M59.154 184.745V167.485H62.7163V174.509H64.5476L69.7906 167.485H73.679L67.4074 175.739L73.7543 184.745H69.6652L64.5476 177.419H62.7163V184.745H59.154Z" fill="#525252"/>
<path d="M87.9232 184.945C87.2876 184.945 86.5852 184.929 85.8159 184.895C85.0633 184.862 84.3275 184.811 83.6083 184.745C82.8892 184.694 82.2286 184.636 81.6265 184.569V181.734C82.2453 181.784 82.8724 181.835 83.508 181.885C84.1602 181.935 84.779 181.977 85.3644 182.01C85.9497 182.027 86.4514 182.035 86.8695 182.035C87.7225 182.035 88.3831 182.002 88.8514 181.935C89.3196 181.851 89.6708 181.734 89.905 181.584C90.089 181.45 90.2144 181.308 90.2813 181.157C90.3482 180.99 90.39 180.798 90.4067 180.58C90.4234 180.346 90.4318 180.087 90.4318 179.803C90.4318 179.418 90.4067 179.1 90.3565 178.849C90.3231 178.598 90.2562 178.406 90.1559 178.272C90.0555 178.122 89.8883 178.013 89.6541 177.946C89.4367 177.879 89.1524 177.829 88.8012 177.796L84.9379 177.319C84.1686 177.219 83.5331 177.043 83.0313 176.792C82.5463 176.541 82.1617 176.207 81.8774 175.789C81.593 175.371 81.3924 174.877 81.2753 174.309C81.1749 173.74 81.1248 173.096 81.1248 172.377C81.1248 171.24 81.2836 170.337 81.6014 169.668C81.9192 168.999 82.3624 168.489 82.931 168.137C83.5163 167.786 84.202 167.56 84.9881 167.46C85.7741 167.343 86.627 167.284 87.5469 167.284C88.2158 167.284 88.9015 167.31 89.6039 167.36C90.3064 167.393 90.967 167.443 91.5858 167.51C92.2046 167.577 92.723 167.661 93.1411 167.761V170.521C92.723 170.454 92.238 170.395 91.6861 170.345C91.1342 170.295 90.5572 170.261 89.9552 170.245C89.3531 170.211 88.7845 170.194 88.2493 170.194C87.4633 170.194 86.8361 170.228 86.3678 170.295C85.9163 170.345 85.565 170.437 85.3142 170.571C85.0299 170.738 84.8543 170.955 84.7874 171.223C84.7372 171.491 84.7121 171.825 84.7121 172.226C84.7121 172.728 84.7456 173.113 84.8125 173.38C84.8794 173.631 85.0382 173.807 85.2891 173.907C85.54 174.008 85.933 174.091 86.4682 174.158L90.3315 174.61C90.7997 174.66 91.2346 174.743 91.6359 174.861C92.0373 174.978 92.3969 175.162 92.7147 175.412C93.0324 175.663 93.2916 176.014 93.4923 176.466C93.6094 176.7 93.7014 176.976 93.7683 177.294C93.8352 177.595 93.8854 177.938 93.9188 178.322C93.969 178.707 93.9941 179.134 93.9941 179.602C93.9941 180.572 93.8937 181.383 93.693 182.035C93.5091 182.687 93.2415 183.206 92.8903 183.591C92.5391 183.975 92.1042 184.268 91.5858 184.469C91.084 184.669 90.5238 184.795 89.905 184.845C89.2862 184.912 88.6256 184.945 87.9232 184.945Z" fill="#525252"/>
<path d="M103.856 184.945C102.635 184.945 101.615 184.87 100.795 184.719C99.9759 184.569 99.3153 184.326 98.8136 183.992C98.3118 183.657 97.9272 183.189 97.6596 182.587C97.4087 181.985 97.2331 181.232 97.1328 180.329C97.0492 179.41 97.0074 178.314 97.0074 177.043V167.485H100.57V177.946C100.57 178.833 100.595 179.552 100.645 180.104C100.712 180.639 100.837 181.048 101.021 181.333C101.222 181.617 101.548 181.809 102 181.91C102.451 181.993 103.07 182.035 103.856 182.035C104.642 182.035 105.252 181.993 105.687 181.91C106.139 181.809 106.465 181.617 106.666 181.333C106.866 181.048 106.992 180.639 107.042 180.104C107.092 179.552 107.117 178.833 107.117 177.946V167.485H110.679V177.043C110.679 178.314 110.629 179.41 110.529 180.329C110.445 181.232 110.278 181.985 110.027 182.587C109.776 183.189 109.4 183.657 108.898 183.992C108.397 184.326 107.736 184.569 106.916 184.719C106.097 184.87 105.077 184.945 103.856 184.945Z" fill="#525252"/>
<path d="M114.423 184.745V167.485H118.111L124.909 178.122H125.035V167.485H128.447V184.745H125.06L117.961 173.531H117.835V184.745H114.423Z" fill="#525252"/>
<path d="M132.301 184.745V167.485H135.989L142.787 178.122H142.913V167.485H146.325V184.745H142.938L135.838 173.531H135.713V184.745H132.301Z" fill="#525252"/>
<path d="M148.498 184.745L154.344 167.485H159.11L164.955 184.745H161.318L160.038 180.931H153.29L152.061 184.745H148.498ZM154.193 178.046H159.11L156.727 170.721H156.576L154.193 178.046Z" fill="#525252"/>
<path d="M167.126 184.745V167.485H170.688V174.534H177.562V167.485H181.124V184.745H177.562V177.595H170.688V184.745H167.126Z" fill="#525252"/>
<path d="M133.525 2.01531C136.611 2.0067 139.249 3.17723 141.135 4.51415L189.495 38.8333C195.017 42.9819 193.946 45.3984 190.613 46.2869C173.97 49.6118 133.713 59.3851 111.413 79.1515C108.015 82.6042 104.691 81.9092 104.691 76.5884V14.975C108.474 12.2546 118.44 5.63129 130.292 2.45322C131.409 2.15113 132.5 2.01531 133.525 2.01531Z" fill="url(#paint0_linear_69_3)"/>
<path d="M72.1508 2C73.1765 2 74.2673 2.1388 75.3846 2.44097C87.2363 5.61897 97.2024 12.2392 100.985 14.9596V76.5731C100.985 81.8946 97.6616 82.5893 94.2637 79.1362C71.9628 59.3792 31.7057 49.6087 15.0634 46.2839C11.7299 45.3954 10.6584 42.976 16.1812 38.8272L64.541 4.50802C66.4278 3.17079 69.0672 1.99697 72.1539 2.00612L72.1508 2Z" fill="url(#paint1_linear_69_3)"/>
<defs>
<linearGradient id="paint0_linear_69_3" x1="149.033" y1="81.2745" x2="149.033" y2="3.96859" gradientUnits="userSpaceOnUse">
<stop stop-color="#BEA331"/>
<stop offset="1" stop-color="#FFF1B7"/>
</linearGradient>
<linearGradient id="paint1_linear_69_3" x1="149.033" y1="81.2745" x2="149.033" y2="3.96859" gradientUnits="userSpaceOnUse">
<stop stop-color="#BEA331"/>
<stop offset="1" stop-color="#FFF1B7"/>
</linearGradient>
</defs>
</svg>
