<svg width="144" height="144" viewBox="0 0 144 144" fill="none" xmlns="http://www.w3.org/2000/svg">
<path d="M50.2592 45.8097C48.0723 45.8032 46.2034 46.6338 44.8666 47.5812L10.6034 71.8969C6.69029 74.8365 7.44965 76.5497 9.81167 77.1792C21.6027 79.5348 50.1235 86.4587 65.9236 100.457C68.3311 102.903 70.6867 102.41 70.6867 98.6395V54.9869C68.0067 53.0595 60.9464 48.3678 52.5492 46.1162C51.7576 45.902 50.9853 45.8047 50.2586 45.8047L50.2592 45.8097Z" fill="url(#paint0_linear_72_24)"/>
<path d="M93.7408 45.8125C95.9277 45.806 97.7966 46.6367 99.1334 47.5841L133.397 71.8998C137.31 74.8393 136.55 76.5526 134.188 77.182C122.397 79.5377 93.8765 86.4616 78.0764 100.466C75.6689 102.913 73.3132 102.419 73.3132 98.649V54.9964C75.9933 53.069 83.0536 48.3773 91.4507 46.1257C92.2424 45.9115 93.0146 45.8142 93.7414 45.8142L93.7408 45.8125Z" fill="url(#paint1_linear_72_24)"/>
<defs>
<linearGradient id="paint0_linear_72_24" x1="39.2705" y1="101.96" x2="39.2705" y2="47.1907" gradientUnits="userSpaceOnUse">
<stop stop-color="#BEA331"/>
<stop offset="1" stop-color="#FFF1B7"/>
</linearGradient>
<linearGradient id="paint1_linear_72_24" x1="104.729" y1="101.97" x2="104.729" y2="47.1986" gradientUnits="userSpaceOnUse">
<stop stop-color="#BEA331"/>
<stop offset="1" stop-color="#FFF1B7"/>
</linearGradient>
</defs>
</svg>
